# xmcd
#
# Track frame offsets:
#	150
#	19468
#	40418
#	56924
#	76095
#	93047
#	111779
#	130251
#	149315
#	164122
#
# Disc length: 2417 seconds
#
# Revision: 1
# Processed by: cddbd v1.5.2PL0 Copyright (c) Steve Scherf et al.
# Submitted via: audiograbber 1.83.01
#
DISCID=88096f0a
DTITLE=Stevi Marie - Second Sight Stevi Marie
DYEAR=2008
DGENRE=Country
TTITLE0=Second Sight
TTITLE1=Ghost Of A Chance
TTITLE2=Turn The Radio On
TTITLE3=The Good Life
TTITLE4=Head Over Heels
TTITLE5=Long Day
TTITLE6=Follow You Down
TTITLE7=I´ll Take You
TTITLE8=Drunken Midnight Blue
TTITLE9=American Way
EXTD=
EXTT0=
EXTT1=
EXTT2=
EXTT3=
EXTT4=
EXTT5=
EXTT6=
EXTT7=
EXTT8=
EXTT9=
PLAYORDER=
